<?xml version="1.0" encoding="UTF-8" standalone="no"?>
<svg
   xmlns:dc="http://purl.org/dc/elements/1.1/"
   xmlns:cc="http://creativecommons.org/ns#"
   xmlns:rdf="http://www.w3.org/1999/02/22-rdf-syntax-ns#"
   xmlns:svg="http://www.w3.org/2000/svg"
   xmlns="http://www.w3.org/2000/svg"
   xmlns:sodipodi="http://sodipodi.sourceforge.net/DTD/sodipodi-0.dtd"
   xmlns:inkscape="http://www.inkscape.org/namespaces/inkscape"
   width="137.67606mm"
   height="37.44381mm"
   viewBox="0 0 137.67605 37.44381"
   version="1.1"
   id="svg1615"
   inkscape:version="1.0.2 (e86c870879, 2021-01-15)"
   sodipodi:docname="spectre.svg">
  <defs
     id="defs1609" />
  <sodipodi:namedview
     id="base"
     pagecolor="#ffffff"
     bordercolor="#666666"
     borderopacity="1.0"
     inkscape:pageopacity="0.0"
     inkscape:pageshadow="2"
     inkscape:zoom="2.8"
     inkscape:cx="271.22457"
     inkscape:cy="97.364434"
     inkscape:document-units="mm"
     inkscape:current-layer="g1255"
     inkscape:document-rotation="0"
     showgrid="false"
     inkscape:window-width="2560"
     inkscape:window-height="1402"
     inkscape:window-x="0"
     inkscape:window-y="18"
     inkscape:window-maximized="0"
     inkscape:snap-text-baseline="false"
     inkscape:snap-object-midpoints="true"
     inkscape:snap-bbox="true"
     inkscape:snap-bbox-midpoints="true"
     inkscape:snap-bbox-edge-midpoints="true"
     showguides="true"
     lock-margins="true"
     fit-margin-top="0"
     fit-margin-left="0"
     fit-margin-right="0"
     fit-margin-bottom="0"
     inkscape:snap-page="true">
    <inkscape:grid
       type="xygrid"
       id="grid3928"
       originx="8.4909834"
       originy="1.7285727e-06" />
  </sodipodi:namedview>
  <metadata
     id="metadata1612">
    <rdf:RDF>
      <cc:Work
         rdf:about="">
        <dc:format>image/svg+xml</dc:format>
        <dc:type
           rdf:resource="http://purl.org/dc/dcmitype/StillImage" />
        <dc:title></dc:title>
      </cc:Work>
    </rdf:RDF>
  </metadata>
  <g
     inkscape:label="Layer 1"
     inkscape:groupmode="layer"
     id="layer1"
     transform="translate(-0.28986785,-78.36925)">
    <g
       id="g1255"
       transform="matrix(0.30886752,0,0,0.30886752,6.3411512,78.147202)">
      <g
         id="g879">
        <path
           d="m 104.531,26.934 h 150.028 c 1.941,0 2.91,0.968 2.91,2.906 v 13.574 c 0,1.938 -0.969,2.91 -2.91,2.91 H 104.531 c -1.937,0 -2.91,-0.972 -2.91,-2.91 V 29.84 c 0,-1.938 0.973,-2.906 2.91,-2.906 z"
           style="fill:#f8cecc;fill-opacity:1;fill-rule:nonzero;stroke:#b85450;stroke-width:0.718182;stroke-linecap:butt;stroke-linejoin:miter;stroke-miterlimit:10;stroke-dasharray:none;stroke-opacity:1"
           id="path877" />
      </g>
      <g
         id="g883">
        <path
           d="m 75.805,1.078 h 224 c 1.937,0 2.91,0.969 2.91,2.906 v 13.575 c 0,1.941 -0.973,2.91 -2.91,2.91 h -224 c -1.942,0 -2.91,-0.969 -2.91,-2.91 V 3.984 c 0,-1.937 0.968,-2.906 2.91,-2.906 z"
           style="fill:#fff2cc;fill-opacity:1;fill-rule:nonzero;stroke:#d6b656;stroke-width:0.718182;stroke-linecap:butt;stroke-linejoin:miter;stroke-miterlimit:10;stroke-dasharray:none;stroke-opacity:1"
           id="path881" />
      </g>
      <g
         id="g901"
         transform="translate(-27.49075)">
        <path
           d="m 22.621,10.414 c 0,1.984 -0.699,3.676 -2.101,5.078 -1.403,1.403 -3.094,2.102 -5.079,2.102 -1.984,0 -3.675,-0.699 -5.078,-2.102 C 8.961,14.09 8.258,12.398 8.258,10.414 8.258,8.43 8.961,6.738 10.363,5.336 11.766,3.934 13.457,3.23 15.441,3.23 c 1.985,0 3.676,0.704 5.079,2.106 1.402,1.402 2.101,3.094 2.101,5.078 z"
           style="fill:#ffffff;fill-opacity:1;fill-rule:nonzero;stroke:#000000;stroke-width:0.718182;stroke-linecap:butt;stroke-linejoin:miter;stroke-miterlimit:10;stroke-dasharray:none;stroke-opacity:1"
           id="path899" />
      </g>
      <path
         d="m -9.4397504,13.645 h -4.1880016 v -1.094 h 1.313 V 9.238 h -1.313 V 8.207 c 0.196,0 0.391,-0.008 0.578,-0.031 0.188,-0.02 0.344,-0.063 0.469,-0.125 0.145,-0.071 0.254,-0.16 0.328,-0.266 0.071,-0.113 0.114,-0.254 0.125,-0.422 h 1.391 v 5.188 h 1.2970016 z"
         style="fill:#000000;fill-opacity:1;fill-rule:nonzero;stroke:none"
         id="path903" />
      <path
         d="m 392.36438,72.489685 c -0.875,0.324 -2.269,0.68 -3.824,1.039 -0.551,0.906 -1.559,1.652 -3.145,1.945 -0.359,0.067 -0.777,0.098 -1.234,0.129 -1.102,0.035 -2.398,-0.094 -3.824,-0.191 -0.098,0 -0.196,0 -0.293,-0.035 -0.356,-0.032 -0.649,-0.289 -0.68,-0.649 -0.031,-0.453 0.324,-0.808 0.746,-0.746 0.098,0 0.227,0.031 0.324,0.031 1.848,0.164 3.598,0.328 4.7,0.098 2.043,-0.387 2.629,-1.621 2.496,-2.66 -0.098,-0.844 -0.746,-1.653 -1.75,-1.59 -1.426,0.098 -3.114,0 -4.766,-0.129 -1.879,-0.129 -3.793,-0.195 -5.187,-0.031 -1.524,0.16 -4.602,1.297 -7.325,3.144 -1.332,0.91 -2.824,1.981 -3.73,2.664 -0.453,0.325 -0.551,0.973 -0.195,1.426 l 3.957,5.125 c 0.324,0.457 0.972,0.52 1.425,0.195 l 1.461,-1.136 c 0.356,-0.258 0.809,-0.356 1.2,-0.227 2.656,0.844 5.511,1.399 7.359,1.492 4.051,0.196 11.863,-4.605 14.101,-6.164 2.27,-1.523 0.649,-4.64 -1.816,-3.73 z"
         style="fill:#000000;fill-opacity:1;fill-rule:nonzero;stroke:none"
         id="path905" />
      <path
         d="m 383.64538,67.137685 c 0.192,0.192 0.516,0.192 0.711,0 l 4.864,-4.836 c 0.195,-0.195 0.195,-0.519 0,-0.714 l -1.2,-1.2 c -0.195,-0.195 -0.519,-0.195 -0.714,0 l -1.946,1.946 v -7.364 c 0,-0.293 -0.226,-0.519 -0.515,-0.519 h -1.688 c -0.293,0 -0.519,0.226 -0.519,0.519 v 7.332 l -1.946,-1.945 c -0.195,-0.195 -0.519,-0.195 -0.711,0 l -1.199,1.199 c -0.195,0.196 -0.195,0.52 0,0.715 z"
         style="fill:#000000;fill-opacity:1;fill-rule:nonzero;stroke:none"
         id="path907" />
      <g
         id="g933">
        <path
           d="m 329.285,90.852 c 0,1.98 -0.699,3.675 -2.101,5.078 -1.403,1.402 -3.098,2.101 -5.079,2.101 -1.984,0 -3.675,-0.699 -5.078,-2.101 -1.402,-1.403 -2.105,-3.098 -2.105,-5.078 0,-1.985 0.703,-3.676 2.105,-5.079 1.403,-1.402 3.094,-2.105 5.078,-2.105 1.981,0 3.676,0.703 5.079,2.105 1.402,1.403 2.101,3.094 2.101,5.079 z"
           style="fill:#ffffff;fill-opacity:1;fill-rule:nonzero;stroke:#000000;stroke-width:0.718182;stroke-linecap:butt;stroke-linejoin:miter;stroke-miterlimit:10;stroke-dasharray:none;stroke-opacity:1"
           id="path931" />
      </g>
      <path
         d="m 324.57,91.941 c 0,0.325 -0.058,0.633 -0.172,0.922 -0.117,0.282 -0.281,0.516 -0.5,0.703 -0.23,0.211 -0.496,0.372 -0.796,0.485 -0.293,0.101 -0.641,0.156 -1.047,0.156 -0.375,0 -0.719,-0.047 -1.032,-0.141 -0.304,-0.101 -0.562,-0.265 -0.781,-0.484 -0.262,-0.238 -0.461,-0.547 -0.594,-0.922 -0.136,-0.383 -0.203,-0.844 -0.203,-1.375 0,-0.551 0.063,-1.039 0.188,-1.469 0.125,-0.425 0.332,-0.8 0.625,-1.125 0.269,-0.312 0.625,-0.554 1.062,-0.734 0.446,-0.176 0.973,-0.266 1.578,-0.266 0.207,0 0.43,0.016 0.672,0.047 0.239,0.032 0.395,0.055 0.469,0.063 v 1.234 h -0.156 c -0.074,-0.039 -0.203,-0.082 -0.391,-0.125 -0.18,-0.051 -0.383,-0.078 -0.609,-0.078 -0.543,0 -0.965,0.137 -1.266,0.406 -0.293,0.262 -0.469,0.625 -0.531,1.094 0.207,-0.125 0.43,-0.223 0.672,-0.297 0.25,-0.082 0.508,-0.125 0.781,-0.125 0.25,0 0.477,0.028 0.688,0.078 0.207,0.055 0.398,0.141 0.578,0.266 0.226,0.168 0.41,0.391 0.547,0.672 0.144,0.273 0.218,0.609 0.218,1.015 z m -1.906,0.954 c 0.082,-0.094 0.148,-0.204 0.203,-0.329 0.051,-0.132 0.078,-0.316 0.078,-0.546 0,-0.196 -0.031,-0.364 -0.093,-0.5 -0.055,-0.133 -0.133,-0.239 -0.235,-0.313 -0.105,-0.082 -0.226,-0.133 -0.359,-0.156 -0.137,-0.031 -0.278,-0.047 -0.422,-0.047 -0.125,0 -0.258,0.016 -0.391,0.047 -0.136,0.023 -0.261,0.054 -0.375,0.094 0,0.031 0,0.078 0,0.14 0,0.063 0,0.149 0,0.25 0,0.344 0.032,0.633 0.094,0.86 0.07,0.218 0.164,0.386 0.281,0.5 0.071,0.085 0.16,0.148 0.266,0.187 0.113,0.043 0.234,0.063 0.359,0.063 0.094,0 0.192,-0.02 0.297,-0.063 0.113,-0.039 0.211,-0.102 0.297,-0.187 z"
         style="fill:#000000;fill-opacity:1;fill-rule:nonzero;stroke:none"
         id="path935" />
      <g
         id="g975">
        <path
           d="m 93.723,10.414 c 0,1.984 -0.7,3.676 -2.102,5.078 -1.402,1.403 -3.098,2.102 -5.082,2.102 -1.98,0 -3.676,-0.699 -5.078,-2.102 -1.402,-1.402 -2.102,-3.094 -2.102,-5.078 0,-1.984 0.7,-3.676 2.102,-5.078 1.402,-1.402 3.098,-2.106 5.078,-2.106 1.984,0 3.68,0.704 5.082,2.106 1.402,1.402 2.102,3.094 2.102,5.078 z"
           style="fill:#ffffff;fill-opacity:1;fill-rule:nonzero;stroke:#000000;stroke-width:0.718182;stroke-linecap:butt;stroke-linejoin:miter;stroke-miterlimit:10;stroke-dasharray:none;stroke-opacity:1"
           id="path973" />
      </g>
      <path
         d="m 89.539,13.645 h -4.922 v -1.032 c 0.375,-0.269 0.75,-0.554 1.125,-0.859 0.375,-0.313 0.676,-0.582 0.906,-0.813 0.344,-0.32 0.582,-0.601 0.719,-0.843 0.145,-0.25 0.219,-0.493 0.219,-0.735 0,-0.281 -0.094,-0.5 -0.281,-0.656 -0.18,-0.156 -0.438,-0.234 -0.782,-0.234 -0.261,0 -0.539,0.054 -0.828,0.156 -0.281,0.105 -0.543,0.242 -0.781,0.406 h -0.141 v -1.39 c 0.207,-0.083 0.504,-0.165 0.891,-0.25 0.383,-0.094 0.774,-0.141 1.172,-0.141 0.781,0 1.375,0.168 1.781,0.5 0.414,0.324 0.625,0.789 0.625,1.391 0,0.398 -0.101,0.777 -0.297,1.14 -0.199,0.356 -0.5,0.719 -0.906,1.094 -0.25,0.242 -0.508,0.461 -0.766,0.656 -0.261,0.199 -0.445,0.336 -0.546,0.406 h 2.812 z"
         style="fill:#000000;fill-opacity:1;fill-rule:nonzero;stroke:none"
         id="path977" />
      <g
         id="g1027"
         transform="translate(-2.9126421)">
        <path
           d="m 125.324,36.988 c 0,1.981 -0.703,3.676 -2.105,5.078 -1.403,1.403 -3.094,2.102 -5.078,2.102 -1.985,0 -3.676,-0.699 -5.079,-2.102 -1.402,-1.402 -2.101,-3.097 -2.101,-5.078 0,-1.984 0.699,-3.679 2.101,-5.082 1.403,-1.402 3.094,-2.101 5.079,-2.101 1.984,0 3.675,0.699 5.078,2.101 1.402,1.403 2.105,3.098 2.105,5.082 z"
           style="fill:#ffffff;fill-opacity:1;fill-rule:nonzero;stroke:#000000;stroke-width:0.718182;stroke-linecap:butt;stroke-linejoin:miter;stroke-miterlimit:10;stroke-dasharray:none;stroke-opacity:1"
           id="path1025" />
      </g>
      <path
         d="m 117.61839,37.281 c 0.133,0.117 0.239,0.25 0.313,0.407 0.082,0.156 0.125,0.367 0.125,0.624 0,0.305 -0.059,0.586 -0.172,0.844 -0.117,0.25 -0.293,0.465 -0.531,0.641 -0.243,0.18 -0.524,0.312 -0.844,0.406 -0.313,0.094 -0.699,0.141 -1.156,0.141 -0.512,0 -0.954,-0.043 -1.328,-0.125 -0.376,-0.071 -0.68,-0.16 -0.907,-0.266 v -1.375 h 0.157 c 0.238,0.149 0.523,0.274 0.859,0.375 0.344,0.106 0.656,0.156 0.937,0.156 0.157,0 0.328,-0.007 0.516,-0.031 0.195,-0.031 0.359,-0.086 0.484,-0.172 0.102,-0.07 0.188,-0.156 0.25,-0.25 0.063,-0.101 0.094,-0.25 0.094,-0.437 0,-0.188 -0.043,-0.328 -0.125,-0.422 -0.086,-0.102 -0.195,-0.176 -0.328,-0.219 -0.137,-0.039 -0.305,-0.062 -0.5,-0.062 -0.187,-0.008 -0.367,-0.016 -0.531,-0.016 h -0.344 v -1.125 h 0.344 c 0.218,0 0.41,-0.004 0.578,-0.016 0.176,-0.019 0.32,-0.05 0.437,-0.093 0.125,-0.051 0.219,-0.118 0.282,-0.204 0.062,-0.093 0.093,-0.226 0.093,-0.406 0,-0.125 -0.039,-0.222 -0.109,-0.297 -0.063,-0.082 -0.141,-0.144 -0.234,-0.187 -0.106,-0.051 -0.235,-0.082 -0.391,-0.094 -0.148,-0.019 -0.273,-0.031 -0.375,-0.031 -0.273,0 -0.563,0.047 -0.875,0.141 -0.305,0.085 -0.602,0.214 -0.891,0.39 h -0.156 v -1.359 c 0.227,-0.094 0.539,-0.18 0.938,-0.266 0.394,-0.094 0.8,-0.141 1.218,-0.141 0.395,0 0.739,0.04 1.032,0.11 0.3,0.074 0.547,0.168 0.734,0.281 0.227,0.137 0.398,0.305 0.516,0.5 0.113,0.199 0.171,0.43 0.171,0.688 0,0.343 -0.109,0.656 -0.328,0.937 -0.218,0.274 -0.507,0.445 -0.859,0.516 v 0.062 c 0.145,0.024 0.297,0.063 0.453,0.125 0.164,0.055 0.317,0.137 0.453,0.25 z"
         style="fill:#000000;fill-opacity:1;fill-rule:nonzero;stroke:none"
         id="path1029" />
      <g
         id="g1043">
        <path
           d="m 309.895,10.414 c 0,1.984 -0.7,3.676 -2.102,5.078 -1.402,1.403 -3.098,2.102 -5.078,2.102 -1.985,0 -3.676,-0.699 -5.078,-2.102 -1.403,-1.402 -2.106,-3.094 -2.106,-5.078 0,-1.984 0.703,-3.676 2.106,-5.078 1.402,-1.402 3.093,-2.106 5.078,-2.106 1.98,0 3.676,0.704 5.078,2.106 1.402,1.402 2.102,3.094 2.102,5.078 z"
           style="fill:#ffffff;fill-opacity:1;fill-rule:nonzero;stroke:#000000;stroke-width:0.718182;stroke-linecap:butt;stroke-linejoin:miter;stroke-miterlimit:10;stroke-dasharray:none;stroke-opacity:1"
           id="path1041" />
      </g>
      <path
         d="m 305.57,11.52 c 0,0.324 -0.062,0.625 -0.187,0.906 -0.117,0.281 -0.289,0.523 -0.516,0.719 -0.262,0.218 -0.562,0.382 -0.906,0.484 -0.336,0.094 -0.715,0.141 -1.141,0.141 -0.5,0 -0.929,-0.043 -1.281,-0.125 -0.344,-0.071 -0.625,-0.157 -0.844,-0.25 v -1.391 h 0.188 c 0.25,0.156 0.519,0.289 0.812,0.391 0.301,0.093 0.598,0.14 0.891,0.14 0.176,0 0.363,-0.015 0.562,-0.047 0.207,-0.039 0.375,-0.117 0.5,-0.234 0.094,-0.082 0.161,-0.164 0.204,-0.25 0.05,-0.094 0.078,-0.234 0.078,-0.422 0,-0.144 -0.032,-0.27 -0.094,-0.375 -0.063,-0.113 -0.148,-0.203 -0.25,-0.266 -0.156,-0.093 -0.344,-0.148 -0.563,-0.171 -0.211,-0.032 -0.398,-0.047 -0.562,-0.047 -0.262,0 -0.508,0.023 -0.734,0.062 -0.231,0.043 -0.434,0.086 -0.61,0.125 H 300.93 V 7.379 h 4.468 v 1.187 h -2.937 v 1.032 c 0.082,-0.008 0.191,-0.016 0.328,-0.016 0.133,0 0.25,0 0.344,0 0.344,0 0.648,0.031 0.922,0.094 0.269,0.062 0.504,0.156 0.703,0.281 0.258,0.148 0.457,0.352 0.594,0.609 0.144,0.25 0.218,0.571 0.218,0.954 z"
         style="fill:#000000;fill-opacity:1;fill-rule:nonzero;stroke:none"
         id="path1045" />
      <path
         d="m 265.35297,4.578 c -0.117,0.121 -0.297,0.121 -0.414,0 -0.113,-0.121 -0.113,-0.312 0,-0.433 0.277,-0.286 0.598,-0.504 0.942,-0.645 h 0.019 c 0.344,-0.145 0.734,-0.219 1.102,-0.219 0.363,0 0.754,0.074 1.097,0.242 0.344,0.145 0.664,0.36 0.938,0.645 0.273,0.289 0.48,0.625 0.617,0.984 0.137,0.36 0.23,0.766 0.23,1.153 0,0.168 -0.136,0.308 -0.296,0.308 -0.161,0 -0.301,-0.14 -0.301,-0.308 0,-0.313 -0.067,-0.625 -0.184,-0.938 -0.113,-0.285 -0.273,-0.551 -0.5,-0.789 -0.23,-0.242 -0.48,-0.41 -0.758,-0.527 -0.273,-0.121 -0.57,-0.192 -0.867,-0.192 -0.297,0 -0.597,0.047 -0.871,0.168 h -0.023 c -0.274,0.141 -0.528,0.309 -0.731,0.551 z"
         style="fill:#000000;fill-opacity:1;fill-rule:nonzero;stroke:none"
         id="path1047" />
      <path
         d="m 264.18497,3.355 1.922,2.012 c 0.16,0.168 0.16,0.457 0,0.625 l -1.258,1.317 c -0.297,-0.528 -0.664,-1.028 -1.097,-1.485 -0.438,-0.457 -0.918,-0.84 -1.418,-1.125 l 1.257,-1.32 c 0.161,-0.191 0.434,-0.191 0.594,-0.024 z"
         style="fill:#000000;fill-opacity:1;fill-rule:evenodd;stroke:none"
         id="path1049" />
      <path
         d="m 263.89197,5.645 c 1.305,1.367 1.957,3.019 1.957,4.949 0,1.933 -0.652,3.586 -1.957,4.953 -1.304,1.363 -2.879,2.047 -4.726,2.047 -1.844,0 -3.418,-0.684 -4.723,-2.047 -1.305,-1.367 -1.957,-3.02 -1.957,-4.953 0,-1.93 0.652,-3.582 1.957,-4.949 1.305,-1.368 2.879,-2.051 4.723,-2.051 1.847,0 3.422,0.683 4.726,2.051 z"
         style="fill:#000000;fill-opacity:1;fill-rule:nonzero;stroke:none"
         id="path1051" />
      <path
         d="m 270.38797,8.246 -0.414,2.063 -0.824,-1.918 -1.988,0.214 1.484,-1.414 -0.824,-1.918 1.742,1.055 1.508,-1.414 -0.434,2.063 1.762,1.054 z"
         style="fill:#000000;fill-opacity:1;fill-rule:evenodd;stroke:none"
         id="path1053" />
      <path
         d="m 32.727065,31.051 c -0.152,0 -0.297,0.058 -0.406,0.164 -0.106,0.105 -0.168,0.25 -0.168,0.402 v 1.719 h 1.148 v -1.719 c 0,-0.312 -0.257,-0.566 -0.574,-0.566 z m 2.297,0 c -0.152,0 -0.297,0.058 -0.406,0.164 -0.106,0.105 -0.168,0.25 -0.168,0.402 v 1.719 h 1.148 v -1.719 c 0,-0.312 -0.257,-0.566 -0.574,-0.566 z m 2.297,0 c -0.152,0 -0.297,0.058 -0.406,0.164 -0.106,0.105 -0.168,0.25 -0.168,0.402 v 1.719 h 1.148 v -1.719 c 0,-0.312 -0.254,-0.566 -0.574,-0.566 z m 2.301,0 c -0.153,0 -0.301,0.058 -0.407,0.164 -0.109,0.105 -0.167,0.25 -0.167,0.402 v 1.719 h 1.148 v -1.719 c 0,-0.312 -0.258,-0.566 -0.574,-0.566 z m 2.297,0 c -0.153,0 -0.301,0.058 -0.407,0.164 -0.109,0.105 -0.168,0.25 -0.168,0.402 v 1.719 h 1.149 v -1.719 c 0,-0.312 -0.258,-0.566 -0.574,-0.566 z m 2.296,0 c -0.152,0 -0.3,0.058 -0.406,0.164 -0.109,0.105 -0.168,0.25 -0.168,0.402 v 1.719 h 1.149 v -1.719 c 0,-0.312 -0.258,-0.566 -0.575,-0.566 z m -12.195,3.418 c -1.469,0 -2.652,1.164 -2.652,2.617 v 12.73 c 0,1.45 1.183,2.614 2.652,2.614 h 12.903 c 1.468,0 2.648,-1.164 2.648,-2.614 v -12.73 c 0,-0.695 -0.277,-1.359 -0.773,-1.852 -0.5,-0.488 -1.172,-0.765 -1.875,-0.765 z m 0.406,1.89 c 0.301,0 0.59,0.118 0.805,0.329 0.215,0.21 0.336,0.496 0.336,0.796 0,0.621 -0.512,1.125 -1.141,1.125 -0.632,0 -1.144,-0.504 -1.144,-1.125 0,-0.621 0.512,-1.125 1.144,-1.125 z m -5.949,0.856 c -0.316,0 -0.574,0.254 -0.574,0.566 0,0.317 0.258,0.571 0.574,0.571 h 1.742 v -1.137 z m 22.242,0 v 1.137 h 1.746 c 0.317,0 0.575,-0.254 0.575,-0.571 0,-0.148 -0.063,-0.293 -0.168,-0.398 -0.11,-0.106 -0.254,-0.168 -0.407,-0.168 z m -22.242,2.269 c -0.316,0 -0.574,0.254 -0.574,0.567 0,0.312 0.258,0.566 0.574,0.566 h 1.742 v -1.133 z m 22.242,0 v 1.133 h 1.746 c 0.317,0 0.575,-0.254 0.575,-0.566 0,-0.153 -0.063,-0.297 -0.168,-0.403 -0.11,-0.105 -0.254,-0.164 -0.407,-0.164 z m -22.242,2.266 c -0.316,0 -0.574,0.254 -0.574,0.566 0,0.313 0.258,0.567 0.574,0.567 h 1.742 V 41.75 Z m 22.242,0 v 1.133 h 1.746 c 0.317,0 0.575,-0.254 0.575,-0.567 0,-0.148 -0.063,-0.293 -0.168,-0.402 -0.11,-0.105 -0.254,-0.164 -0.407,-0.164 z m -22.242,2.266 c -0.316,0 -0.574,0.254 -0.574,0.566 0,0.313 0.258,0.566 0.574,0.566 h 1.742 v -1.132 z m 22.242,0 v 1.132 h 1.746 c 0.317,0 0.575,-0.253 0.575,-0.566 0,-0.148 -0.063,-0.293 -0.168,-0.398 -0.11,-0.106 -0.254,-0.168 -0.407,-0.168 z m -22.242,2.269 c -0.316,0 -0.574,0.25 -0.574,0.567 0,0.312 0.258,0.566 0.574,0.566 h 1.742 v -1.133 z m 22.242,0 v 1.133 h 1.746 c 0.317,0 0.575,-0.254 0.575,-0.566 0,-0.153 -0.063,-0.297 -0.168,-0.403 -0.11,-0.105 -0.254,-0.164 -0.407,-0.164 z m -22.242,2.266 c -0.316,0 -0.574,0.254 -0.574,0.566 0,0.313 0.258,0.567 0.574,0.567 h 1.742 v -1.133 z m 22.242,0 v 1.133 h 1.746 c 0.317,0 0.575,-0.254 0.575,-0.567 0,-0.152 -0.063,-0.293 -0.168,-0.402 -0.11,-0.106 -0.254,-0.164 -0.407,-0.164 z m -16.566,5.011 v 1.723 c 0,0.313 0.258,0.567 0.574,0.567 0.317,0 0.574,-0.254 0.574,-0.567 v -1.723 z m 2.297,0 v 1.723 c 0,0.313 0.258,0.567 0.574,0.567 0.317,0 0.574,-0.254 0.574,-0.567 v -1.723 z m 2.297,0 v 1.723 c 0,0.313 0.258,0.567 0.574,0.567 0.32,0 0.574,-0.254 0.574,-0.567 v -1.723 z m 2.301,0 v 1.723 c 0,0.313 0.253,0.567 0.574,0.567 0.316,0 0.574,-0.254 0.574,-0.567 v -1.723 z m 2.296,0 v 1.723 c 0,0.313 0.254,0.567 0.575,0.567 0.316,0 0.574,-0.254 0.574,-0.567 v -1.723 z m 2.297,0 v 1.723 c 0,0.313 0.258,0.567 0.574,0.567 0.317,0 0.575,-0.254 0.575,-0.567 v -1.723 z"
         style="fill:#000000;fill-opacity:1;fill-rule:evenodd;stroke:none"
         id="path1055" />
      <g
         id="g1059">
        <path
           d="m 121.051,51.352 h 150.027 c 1.938,0 2.91,0.968 2.91,2.906 v 13.574 c 0,1.938 -0.972,2.91 -2.91,2.91 H 121.051 c -1.942,0 -2.91,-0.972 -2.91,-2.91 V 54.258 c 0,-1.938 0.968,-2.906 2.91,-2.906 z"
           style="fill:#f8cecc;fill-opacity:1;fill-rule:nonzero;stroke:#b85450;stroke-width:0.718182;stroke-linecap:butt;stroke-linejoin:miter;stroke-miterlimit:10;stroke-dasharray:none;stroke-opacity:1"
           id="path1057" />
      </g>
      <g
         id="g1063">
        <path
           d="m 149.777,78.281 h 150.028 c 1.937,0 2.91,0.969 2.91,2.91 v 13.575 c 0,1.937 -0.973,2.906 -2.91,2.906 H 149.777 c -1.941,0 -2.91,-0.969 -2.91,-2.906 V 81.191 c 0,-1.941 0.969,-2.91 2.91,-2.91 z"
           style="fill:#f8cecc;fill-opacity:1;fill-rule:nonzero;stroke:#b85450;stroke-width:0.718182;stroke-linecap:butt;stroke-linejoin:miter;stroke-miterlimit:10;stroke-dasharray:none;stroke-opacity:1"
           id="path1061" />
      </g>
      <path
         d="m 267.176,75.562 14.762,-10.484 c -0.098,-0.039 -0.2,-0.07 -0.305,-0.082 l -26.918,-2.68 z"
         style="fill:#000000;fill-opacity:1;fill-rule:nonzero;stroke:none"
         id="path1065" />
      <path
         d="m 272.777,74.246 8.047,9.82 1.664,-16.714 z"
         style="fill:#000000;fill-opacity:1;fill-rule:nonzero;stroke:none"
         id="path1067" />
      <path
         d="m 271.004,75.504 -3.344,2.375 c -0.047,0.035 -0.105,0.051 -0.156,0.074 -0.039,0.02 -0.074,0.043 -0.109,0.059 -0.118,0.039 -0.239,0.066 -0.36,0.066 0,0 0,0 -0.004,0 -0.078,0 -0.156,-0.012 -0.234,-0.027 -0.024,-0.004 -0.043,-0.016 -0.067,-0.02 -0.054,-0.015 -0.105,-0.035 -0.16,-0.058 -0.023,-0.012 -0.047,-0.028 -0.074,-0.043 -0.047,-0.024 -0.09,-0.055 -0.129,-0.086 -0.023,-0.02 -0.047,-0.039 -0.07,-0.059 -0.02,-0.019 -0.039,-0.031 -0.055,-0.047 l -2.808,-2.984 -10.5,8.594 26.609,2.648 C 279.562,86 279.582,86 279.602,86 Z"
         style="fill:#000000;fill-opacity:1;fill-rule:nonzero;stroke:none"
         id="path1069" />
      <path
         d="m 253.281,63.961 -1.765,17.742 10.425,-8.535 z"
         style="fill:#000000;fill-opacity:1;fill-rule:nonzero;stroke:none"
         id="path1071" />
      <path
         d="m 250.086,69.809 h -11.758 c -0.601,0 -1.086,-0.489 -1.086,-1.086 0,-0.602 0.485,-1.086 1.086,-1.086 h 11.758 c 0.602,0 1.086,0.484 1.086,1.086 0,0.597 -0.484,1.086 -1.086,1.086 z"
         style="fill:#000000;fill-opacity:1;fill-rule:nonzero;stroke:none"
         id="path1073" />
      <path
         d="m 250.086,73.426 h -8.594 c -0.597,0 -1.082,-0.488 -1.082,-1.086 0,-0.602 0.485,-1.086 1.082,-1.086 h 8.594 c 0.602,0 1.086,0.484 1.086,1.086 0,0.598 -0.484,1.086 -1.086,1.086 z"
         style="fill:#000000;fill-opacity:1;fill-rule:nonzero;stroke:none"
         id="path1075" />
      <path
         d="m 250.086,77.043 h -5.879 c -0.602,0 -1.086,-0.488 -1.086,-1.086 0,-0.598 0.484,-1.086 1.086,-1.086 h 5.879 c 0.602,0 1.086,0.488 1.086,1.086 0,0.598 -0.484,1.086 -1.086,1.086 z"
         style="fill:#000000;fill-opacity:1;fill-rule:nonzero;stroke:none"
         id="path1077" />
      <path
         d="m 250.086,80.66 h -2.941 c -0.598,0 -1.083,-0.484 -1.083,-1.086 0,-0.597 0.485,-1.086 1.083,-1.086 h 2.941 c 0.602,0 1.086,0.489 1.086,1.086 0,0.602 -0.484,1.086 -1.086,1.086 z"
         style="fill:#000000;fill-opacity:1;fill-rule:nonzero;stroke:none"
         id="path1079" />
      <g
         id="g1083"
         transform="matrix(1.0926566,0,0,1,1.8153149,0)">
        <path
           d="M -19.591841,114.551 H 384.32"
           style="fill:none;stroke:#000000;stroke-width:0.7443;stroke-linecap:butt;stroke-linejoin:miter;stroke-miterlimit:10;stroke-dasharray:none;stroke-opacity:1"
           id="path1081" />
      </g>
      <g
         id="g1087"
         transform="translate(37.260021)">
        <path
           d="m 388.09,114.551 -5.027,2.512 1.257,-2.512 -1.257,-2.516 z"
           style="fill:#000000;fill-opacity:1;fill-rule:nonzero;stroke:#000000;stroke-width:0.718182;stroke-linecap:butt;stroke-linejoin:miter;stroke-miterlimit:10;stroke-dasharray:none;stroke-opacity:1"
           id="path1085" />
      </g>
      <path
         d="m 101.262,114.551 v -2.156 h 0.718 v 2.156 m -0.718,-4.309 v -2.156 h 0.718 v 2.156 m -0.718,-4.308 v -2.157 h 0.718 v 2.157 m -0.718,-4.313 v -2.152 h 0.718 v 2.152 m -0.718,-4.309 V 95.16 h 0.718 v 2.152 m -0.718,-4.308 v -2.152 h 0.718 v 2.152 m -0.718,-4.309 v -2.156 h 0.718 v 2.156 m -0.718,-4.308 V 82.23 h 0.718 v 2.157 m -0.718,-4.309 v -2.156 h 0.718 v 2.156 m -0.718,-4.308 v -2.157 h 0.718 v 2.157 m -0.718,-4.309 v -2.156 h 0.718 v 2.156 m -0.718,-4.313 v -2.152 h 0.718 v 2.152 m -0.718,-4.308 v -2.152 h 0.718 v 2.152 m -0.718,-4.309 v -2.152 h 0.718 v 2.152 m -0.718,-4.308 v -2.157 h 0.718 v 2.157 m -0.718,-4.309 v -2.156 h 0.718 v 2.156 m -0.718,-4.309 v -2.156 h 0.718 v 2.156"
         style="fill:#000000;fill-opacity:1;fill-rule:nonzero;stroke:none"
         id="path1097" />
      <path
         d="m 302.355,114.551 -0.003,-2.156 h 0.718 l 0.004,2.156 m -0.726,-4.309 v -2.156 h 0.714 l 0.004,2.156 m -0.722,-4.308 -0.004,-2.157 h 0.719 l 0.003,2.157 m -0.722,-4.309 -0.004,-2.156 h 0.719 v 2.156 m -0.723,-4.309 -0.004,-2.156 h 0.719 l 0.004,2.152 m -0.723,-4.304 -0.004,-2.156 h 0.719 l 0.004,2.152 m -0.727,-4.309 v -2.152 h 0.715 l 0.004,2.152 m -0.723,-4.308 -0.004,-2.153 h 0.719 l 0.004,2.153 m -0.723,-4.309 -0.003,-2.152 h 0.718 v 2.152 m -0.722,-4.308 -0.004,-2.153 0.719,-0.004 0.003,2.157 m -0.722,-4.309 -0.004,-2.152 0.719,-0.004 0.004,2.156 m -0.727,-4.309 v -2.156 h 0.715 l 0.004,2.156 m -0.723,-4.308 -0.004,-2.156 h 0.719 l 0.004,2.156 m -0.727,-4.309 V 56.379 H 303 v 2.156 m -0.723,-4.308 -0.004,-2.157 h 0.719 l 0.004,2.153 m -0.723,-4.309 -0.003,-2.152 h 0.718 l 0.004,2.152 m -0.726,-4.309 v -2.152 h 0.714 l 0.004,2.152 m -0.722,-4.308 -0.004,-2.152 0.719,-0.004 0.003,2.156 m -0.726,-4.309 v -1.386 h 0.719 v 1.386"
         style="fill:#000000;fill-opacity:1;fill-rule:nonzero;stroke:none"
         id="path1099" />
      <path
         d="m 302.355,114.551 v -2.156 h 0.719 v 2.156 m -0.719,-4.309 v -2.156 h 0.719 v 2.156 m -0.719,-4.308 v -2.157 h 0.719 v 2.157 m -0.719,-4.313 v -2.152 h 0.719 v 2.152 m -0.719,-4.309 V 95.16 h 0.719 v 2.152 m -0.719,-4.308 v -2.152 h 0.719 v 2.152 m -0.719,-4.309 v -2.156 h 0.719 v 2.156 m -0.719,-4.308 V 82.23 h 0.719 v 2.157 m -0.719,-4.309 v -2.156 h 0.719 v 2.156 m -0.719,-4.308 v -2.157 h 0.719 v 2.157 m -0.719,-4.309 v -2.156 h 0.719 v 2.156 m -0.719,-4.313 v -2.152 h 0.719 v 2.152 m -0.719,-4.308 v -2.152 h 0.719 v 2.152 m -0.719,-4.309 v -2.152 h 0.719 v 2.152 m -0.719,-4.308 v -2.157 h 0.719 v 2.157 m -0.719,-4.309 v -2.156 h 0.719 v 2.156 m -0.719,-4.309 v -2.156 h 0.719 v 2.156 m -0.719,-4.308 v -2.156 h 0.719 v 2.156 m -0.719,-4.309 v -2.156 h 0.719 v 2.156 m -0.719,-4.312 v -2.153 h 0.719 v 2.153 m -0.719,-4.309 v -2.152 h 0.719 v 2.152 m -0.719,-4.308 v -2.153 h 0.719 v 2.153 m -0.719,-4.309 v -2.156 h 0.719 v 2.156"
         style="fill:#000000;fill-opacity:1;fill-rule:nonzero;stroke:none"
         id="path1101" />
      <g
         id="g1193"
         transform="translate(36.665104,-0.64541285)">
        <path
           d="m 330.875,21.91 -0.531,2.656 -6.91,0.246 -0.039,2.618 1.511,0.449 1.391,17.582 1.265,0.816 11.161,-0.039 1.39,-1.144 1.352,-17.215 1.512,-0.121 0.043,-2.699 -6.747,-0.247 -0.82,-2.941 z"
           style="fill:#ffffff;fill-opacity:1;fill-rule:nonzero;stroke:#000000;stroke-width:0.363879;stroke-linecap:butt;stroke-linejoin:miter;stroke-miterlimit:10;stroke-dasharray:none;stroke-opacity:1"
           id="path1191" />
      </g>
      <path
         d="m 366.5441,43.049586 c 0,0 0.027,0 0.027,0 0.383,-0.023 0.656,-0.324 0.629,-0.707 l -0.683,-11.926 c -0.028,-0.382 -0.329,-0.656 -0.707,-0.628 -0.383,0.027 -0.657,0.328 -0.629,0.711 l 0.679,11.925 c 0.032,0.328 0.328,0.625 0.684,0.625 z"
         style="fill:#000000;fill-opacity:1;fill-rule:nonzero;stroke:none"
         id="path1195" />
      <path
         d="m 369.9031,43.049586 c 0.379,0 0.68,-0.297 0.68,-0.679 v -11.926 c 0,-0.383 -0.301,-0.684 -0.68,-0.684 -0.383,0 -0.683,0.301 -0.683,0.684 v 11.926 c 0,0.382 0.3,0.679 0.683,0.679 z"
         style="fill:#000000;fill-opacity:1;fill-rule:nonzero;stroke:none"
         id="path1197" />
      <path
         d="m 373.2041,43.049586 c 0,0 0.027,0 0.027,0 0.356,0 0.653,-0.269 0.68,-0.625 l 0.684,-11.925 c 0.027,-0.383 -0.274,-0.684 -0.625,-0.711 -0.383,-0.028 -0.684,0.273 -0.711,0.628 l -0.684,11.926 c -0.027,0.356 0.274,0.684 0.629,0.707 z"
         style="fill:#000000;fill-opacity:1;fill-rule:nonzero;stroke:none"
         id="path1199" />
      <path
         d="m 378.9621,23.483586 h -5.485 l -0.382,-1.746 c -0.164,-0.766 -0.875,-1.336 -1.664,-1.336 l -3.059,-0.027 c -0.789,0 -1.473,0.542 -1.664,1.308 l -0.41,1.801 h -5.457 c -0.903,0 -1.637,0.738 -1.637,1.641 v 1.117 c 0,0.902 0.734,1.636 1.637,1.636 h 0.246 l 1.172,16.02 c 0.109,1.336 1.23,2.402 2.566,2.402 h 10.125 c 1.336,0 2.485,-1.066 2.567,-2.402 l 1.171,-16.047 h 0.247 c 0.902,0 1.636,-0.738 1.636,-1.637 v -1.117 c 0.028,-0.875 -0.707,-1.613 -1.609,-1.613 z m -10.945,-1.5 c 0.027,-0.164 0.195,-0.274 0.355,-0.274 l 3.086,0.028 c 0.164,0 0.301,0.109 0.355,0.273 l 0.325,1.473 h -4.446 z m 8.187,21.832 c -0.055,0.656 -0.598,1.144 -1.227,1.144 h -10.124 c -0.657,0 -1.176,-0.488 -1.227,-1.144 l -1.176,-15.938 h 14.903 z m 3.031,-17.574 c 0,0.164 -0.136,0.273 -0.273,0.273 h -18.121 c -0.164,0 -0.274,-0.137 -0.274,-0.273 v -1.117 c 0,-0.165 0.137,-0.274 0.274,-0.274 h 18.121 c 0.164,0 0.273,0.137 0.273,0.274 z"
         style="fill:#000000;fill-opacity:1;fill-rule:nonzero;stroke:none"
         id="path1201" />
      <path
         d="m 5.1690611,50.988 c 0.8160002,-2.636 1.5820004,-2.976 2.1600004,-2.976 0.5150007,0 1.1170015,0.277 1.8160023,0.597 0.9850012,0.45 2.1020012,0.961 3.4730012,0.961 1.367,0 2.484,-0.511 3.469,-0.961 0.699,-0.32 1.304,-0.597 1.816,-0.597 0.578,0 1.348,0.34 2.16,2.976 1.344,4.348 2.93,7.16 3.762,8.457 l 0.473,0.7 c 0.007,0.007 0.015,0.023 0.023,0.031 -0.012,0.105 -0.043,0.207 -0.086,0.312 -0.008,0.012 -0.016,0.024 -0.02,0.035 -0.019,0.039 -0.039,0.079 -0.062,0.118 -0.844,1.39 -4.676,2.711 -10.164,2.902 -0.449,0.016 -0.906,0.023 -1.371,0.023 -0.469,0 -0.926,-0.007 -1.371,-0.023 -0.782,-0.027 -1.5320004,-0.074 -2.2420016,-0.145 -0.043,-0.003 -0.086,-0.011 -0.125,-0.015 C 8.551063,63.352 8.2310626,63.312 7.9190622,63.27 c -0.032,-0.004 -0.063,-0.008 -0.094,-0.012 -2.0630009,-0.285 -3.7460013,-0.738 -4.9380015,-1.281 -0.062,-0.028 -0.125,-0.059 -0.187,-0.09 -0.035,-0.016 -0.07,-0.032 -0.102,-0.047 -0.035,-0.02 -0.07,-0.035 -0.1009998,-0.055 -0.059,-0.027 -0.117,-0.058 -0.168,-0.086 -0.024,-0.015 -0.047,-0.027 -0.071,-0.043 -0.058,-0.035 -0.121,-0.066 -0.179,-0.101 -0.7069998,-0.442 -1.11399963,-0.91 -1.16399963,-1.379 0.004,-0.004 0.008,-0.016 0.011,-0.02 L 1.4070611,59.445 c 0.8319998,-1.297 2.4219998,-4.109 3.762,-8.457 z"
         style="fill:#000000;fill-opacity:1;fill-rule:nonzero;stroke:none"
         id="path1203" />
      <path
         d="m 22.704065,68.301 c -2.235,0.465 -4.848,0.777 -7.692,0.89 -0.066,0.004 -0.129,0.004 -0.195,0.008 -0.184,0.008 -0.367,0.012 -0.555,0.02 -0.132,0.004 -0.265,0.004 -0.394,0.008 -0.137,0.003 -0.274,0.007 -0.406,0.007 -0.282,0.004 -0.563,0.008 -0.844,0.008 -0.285,0 -0.563,-0.004 -0.844,-0.008 -0.137,0 -0.273,-0.004 -0.406,-0.007 -0.133,-0.004 -0.266,-0.004 -0.399,-0.008 -0.183,-0.008 -0.371,-0.012 -0.554,-0.02 -0.067,-0.004 -0.129,-0.004 -0.196,-0.008 -2.8430035,-0.113 -5.4570039,-0.425 -7.6910041,-0.89 -0.422,-0.09 -0.8359998,-0.184 -1.2339998,-0.281 v 2.496 c 0.347,0.57 2.7499998,4.281 6.2500006,4.281 1.2540017,0 2.5350033,-0.477 3.8000033,-1.414 0.071,-0.055 0.731,-0.555 1.274,-0.555 0.539,0 1.203,0.5 1.273,0.559 1.266,0.933 2.543,1.41 3.797,1.41 3.504,0 5.903,-3.711 6.25,-4.281 V 68.02 c -0.398,0.097 -0.812,0.191 -1.234,0.281 z M 9.9620646,72.113 c -0.082,0.246 -0.7580008,0.532 -2.3710029,0.5 -2.4180006,-0.051 -3.3440008,-1.679 -3.6370008,-2.414 0.394,-0.047 0.7890002,-0.07 1.1760002,-0.07 2.6750011,0 4.2420031,1.137 4.2570031,1.148 0.3990004,0.301 0.6370008,0.645 0.5750004,0.836 z m 7.6790004,0.5 c -1.609,0.035 -2.285,-0.254 -2.367,-0.5 -0.066,-0.191 0.172,-0.535 0.57,-0.836 0.016,-0.011 1.582,-1.148 4.258,-1.148 0.387,0 0.778,0.023 1.176,0.07 -0.301,0.731 -1.242,2.363 -3.637,2.414 z"
         style="fill:#000000;fill-opacity:1;fill-rule:nonzero;stroke:none"
         id="path1205" />
      <path
         d="m 24.602065,67.16 -0.414,0.11 c -2.773,0.734 -6.254,1.183 -9.933,1.285 -0.071,0.004 -0.145,0.004 -0.215,0.004 -0.192,0.003 -0.379,0.011 -0.571,0.011 -0.281,0.004 -0.566,0.008 -0.851,0.008 -0.289,0 -0.57,-0.004 -0.856,-0.008 -0.187,0 -0.379,-0.008 -0.566,-0.011 -0.074,0 -0.145,0 -0.215,-0.004 C 7.2980615,68.453 3.8210609,68.004 1.0480613,67.27 L 0.63006124,67.16 C -2.6279401,66.234 -4.5109411,64.973 -4.5109411,63.754 c 0,-1.176 1.785001,-2.399 4.80100252,-3.301 0.004,0.016 0.011,0.031 0.015,0.051 0.012,0.035 0.02,0.066 0.032,0.101 0.015,0.043 0.031,0.083 0.046,0.122 0.016,0.035 0.032,0.07 0.051,0.101 0.02,0.039 0.039,0.078 0.063,0.117 0.019,0.035 0.039,0.067 0.062,0.098 0.024,0.039 0.051,0.078 0.082,0.117 0.024,0.031 0.047,0.063 0.0740001,0.094 0.032,0.035 0.063,0.074 0.098,0.109 0.028,0.032 0.055,0.063 0.086,0.094 0.035,0.035 0.078,0.07 0.11699998,0.109 0.032,0.028 0.063,0.059 0.098,0.086 0.039,0.036 0.086,0.071 0.129,0.106 0.039,0.027 0.074,0.058 0.1089996,0.086 0.047,0.035 0.102,0.07 0.149,0.101 0.039,0.028 0.078,0.055 0.117,0.082 0.055,0.035 0.113,0.067 0.172,0.102 0.039,0.023 0.078,0.051 0.1209998,0.074 0.062,0.035 0.129,0.07 0.195,0.106 0.039,0.019 0.078,0.043 0.117,0.062 0.078,0.043 0.16,0.078 0.242,0.117 0.032,0.016 0.063,0.032 0.098,0.047 0.113,0.055 0.235,0.106 0.36,0.156 0.015,0.008 0.035,0.016 0.05,0.02 0.106,0.047 0.215,0.09 0.328,0.129 0.043,0.019 0.094,0.035 0.141,0.051 0.086,0.031 0.168,0.062 0.258,0.093 0.055,0.02 0.113,0.036 0.168,0.055 0.082,0.027 0.164,0.055 0.25,0.078 0.058,0.02 0.125,0.039 0.183,0.055 0.086,0.027 0.164,0.051 0.2500002,0.074 0.067,0.02 0.133,0.035 0.2,0.055 0.082,0.019 0.164,0.043 0.25,0.066 0.07,0.016 0.14,0.035 0.207,0.051 0.086,0.02 0.172,0.043 0.257,0.062 0.075,0.016 0.1450002,0.032 0.2190002,0.047 0.086,0.02 0.172,0.039 0.262,0.059 0.074,0.016 0.148,0.027 0.223,0.043 0.089,0.019 0.179,0.035 0.269,0.055 0.074,0.011 0.1530002,0.027 0.2270002,0.039 0.093,0.019 0.183,0.035 0.277,0.05 0.078,0.012 0.156,0.028 0.234,0.039 0.094,0.012 0.184,0.028 0.2780002,0.043 0.082,0.012 0.16,0.024 0.238,0.036 0.098001,0.011 0.1910005,0.027 0.2890005,0.039 0.078,0.011 0.1560004,0.019 0.2380004,0.031 0.098,0.012 0.1960004,0.023 0.2890004,0.035 0.083,0.008 0.165,0.02 0.2470004,0.027 0.097,0.012 0.195,0.02 0.2930004,0.032 0.082,0.007 0.164,0.015 0.25,0.023 0.097,0.008 0.1990004,0.02 0.2960004,0.027 0.086,0.004 0.1680004,0.012 0.2500004,0.02 0.102,0.008 0.2040004,0.016 0.3050004,0.02 0.082,0.007 0.164,0.011 0.242,0.019 0.11,0.004 0.215,0.012 0.321,0.016 0.078,0.004 0.156,0.008 0.234,0.011 0.113,0.008 0.223,0.012 0.336,0.016 0.074,0.004 0.148,0.004 0.219,0.008 0.125,0.004 0.246,0.008 0.367,0.008 0.066,0 0.129,0.004 0.191,0.004 0.188,0.003 0.371,0.003 0.559,0.003 0.183,0 0.371,0 0.555,-0.003 0.062,0 0.128,-0.004 0.191,-0.004 0.121,-0.004 0.246,-0.004 0.367,-0.008 0.074,-0.004 0.149,-0.008 0.223,-0.008 0.109,-0.004 0.222,-0.008 0.332,-0.016 0.078,-0.003 0.156,-0.007 0.234,-0.011 0.11,-0.004 0.215,-0.012 0.321,-0.016 0.082,-0.008 0.16,-0.012 0.242,-0.019 0.101,-0.004 0.207,-0.012 0.308,-0.02 0.082,-0.008 0.164,-0.016 0.246,-0.02 0.098,-0.007 0.2,-0.019 0.297,-0.027 0.086,-0.008 0.168,-0.016 0.25,-0.023 0.098,-0.012 0.196,-0.02 0.293,-0.032 0.082,-0.007 0.164,-0.019 0.246,-0.027 0.098,-0.012 0.196,-0.023 0.289,-0.035 0.082,-0.012 0.161,-0.02 0.243,-0.031 0.093,-0.012 0.191,-0.028 0.285,-0.039 0.082,-0.012 0.16,-0.024 0.238,-0.036 0.094,-0.015 0.187,-0.031 0.277,-0.043 0.082,-0.011 0.16,-0.027 0.239,-0.039 0.089,-0.015 0.183,-0.031 0.273,-0.05 0.078,-0.012 0.152,-0.028 0.227,-0.039 0.093,-0.02 0.179,-0.036 0.269,-0.055 0.074,-0.016 0.152,-0.027 0.223,-0.043 0.09,-0.02 0.176,-0.039 0.262,-0.059 0.074,-0.015 0.148,-0.031 0.218,-0.047 0.086,-0.019 0.172,-0.042 0.258,-0.062 0.07,-0.016 0.141,-0.035 0.207,-0.051 0.086,-0.023 0.168,-0.047 0.254,-0.066 0.066,-0.02 0.133,-0.035 0.195,-0.055 0.086,-0.023 0.168,-0.047 0.25,-0.074 0.063,-0.016 0.125,-0.035 0.184,-0.055 0.086,-0.023 0.168,-0.051 0.25,-0.078 0.055,-0.019 0.113,-0.035 0.168,-0.055 0.09,-0.031 0.176,-0.062 0.262,-0.093 0.047,-0.016 0.093,-0.032 0.136,-0.051 0.118,-0.039 0.227,-0.086 0.336,-0.129 0.016,-0.008 0.032,-0.012 0.043,-0.02 0.125,-0.05 0.246,-0.101 0.364,-0.156 0.031,-0.015 0.062,-0.031 0.093,-0.043 0.082,-0.039 0.164,-0.078 0.242,-0.121 0.04,-0.019 0.079,-0.039 0.118,-0.062 0.066,-0.036 0.132,-0.071 0.195,-0.106 0.043,-0.023 0.082,-0.047 0.125,-0.074 0.055,-0.035 0.113,-0.067 0.168,-0.102 0.039,-0.027 0.078,-0.054 0.117,-0.082 0.051,-0.031 0.102,-0.066 0.149,-0.101 0.039,-0.028 0.074,-0.055 0.109,-0.086 0.043,-0.035 0.09,-0.07 0.129,-0.106 0.035,-0.027 0.066,-0.058 0.101,-0.086 0.039,-0.035 0.079,-0.074 0.114,-0.109 0.031,-0.031 0.058,-0.062 0.086,-0.09 0.035,-0.039 0.07,-0.074 0.101,-0.113 0.024,-0.031 0.047,-0.063 0.071,-0.094 0.031,-0.039 0.058,-0.078 0.082,-0.117 0.023,-0.031 0.042,-0.063 0.062,-0.098 0.023,-0.039 0.043,-0.078 0.066,-0.117 0.016,-0.031 0.032,-0.066 0.047,-0.101 0.016,-0.039 0.032,-0.079 0.047,-0.122 0.012,-0.031 0.024,-0.066 0.031,-0.101 0.004,-0.016 0.012,-0.035 0.016,-0.051 3.016,0.902 4.801,2.125 4.801,3.301 0,1.219 -1.883,2.48 -5.141,3.406 z"
         style="fill:#000000;fill-opacity:1;fill-rule:nonzero;stroke:none"
         id="path1207" />
      <g
         id="g1251">
        <path
           d="m 136.953,61.098 c 0,1.984 -0.703,3.675 -2.105,5.078 -1.403,1.402 -3.094,2.105 -5.078,2.105 -1.981,0 -3.676,-0.703 -5.079,-2.105 -1.402,-1.403 -2.101,-3.094 -2.101,-5.078 0,-1.981 0.699,-3.676 2.101,-5.078 1.403,-1.403 3.098,-2.102 5.079,-2.102 1.984,0 3.675,0.699 5.078,2.102 1.402,1.402 2.105,3.097 2.105,5.078 z"
           style="fill:#ffffff;fill-opacity:1;fill-rule:nonzero;stroke:#000000;stroke-width:0.718182;stroke-linecap:butt;stroke-linejoin:miter;stroke-miterlimit:10;stroke-dasharray:none;stroke-opacity:1"
           id="path1249" />
      </g>
      <path
         d="m 132.344,62.633 h -0.86 v 1.453 h -1.546 v -1.453 h -3.032 v -1.188 l 2.938,-3.64 h 1.64 v 3.672 h 0.86 z m -2.406,-1.156 v -2.266 l -1.829,2.266 z"
         style="fill:#000000;fill-opacity:1;fill-rule:nonzero;stroke:none"
         id="path1253" />
      <text
         xml:space="preserve"
         style="font-style:normal;font-variant:normal;font-weight:bold;font-stretch:normal;font-size:9.13732px;line-height:1.25;font-family:sans-serif;-inkscape-font-specification:'sans-serif, Bold';font-variant-ligatures:normal;font-variant-caps:normal;font-variant-numeric:normal;font-variant-east-asian:normal;stroke-width:0.856624"
         x="-1.343824"
         y="13.258602"
         id="text3926"><tspan
           sodipodi:role="line"
           id="tspan3924"
           x="-1.343824"
           y="13.258602"
           style="font-style:normal;font-variant:normal;font-weight:bold;font-stretch:normal;font-size:9.13732px;font-family:sans-serif;-inkscape-font-specification:'sans-serif, Bold';font-variant-ligatures:normal;font-variant-caps:normal;font-variant-numeric:normal;font-variant-east-asian:normal;stroke-width:0.856624">Vorbereitung</tspan></text>
      <text
         xml:space="preserve"
         style="font-style:normal;font-variant:normal;font-weight:bold;font-stretch:normal;font-size:9.13732px;line-height:1.25;font-family:sans-serif;-inkscape-font-specification:'sans-serif, Bold';font-variant-ligatures:normal;font-variant-caps:normal;font-variant-numeric:normal;font-variant-east-asian:normal;stroke-width:0.856624"
         x="97.274506"
         y="13.883111"
         id="text3940"><tspan
           sodipodi:role="line"
           id="tspan3938"
           x="97.274506"
           y="13.883111"
           style="font-style:normal;font-variant:normal;font-weight:bold;font-stretch:normal;font-size:9.13732px;font-family:sans-serif;-inkscape-font-specification:'sans-serif, Bold';font-variant-ligatures:normal;font-variant-caps:normal;font-variant-numeric:normal;font-variant-east-asian:normal;stroke-width:0.856624">Auslöser Transient Execution</tspan></text>
      <text
         xml:space="preserve"
         style="font-style:normal;font-variant:normal;font-weight:bold;font-stretch:normal;font-size:9.13732px;line-height:1.25;font-family:sans-serif;-inkscape-font-specification:'sans-serif, Bold';font-variant-ligatures:normal;font-variant-caps:normal;font-variant-numeric:normal;font-variant-east-asian:normal;stroke-width:0.856624"
         x="125.9211"
         y="39.4716"
         id="text3944"><tspan
           sodipodi:role="line"
           id="tspan3942"
           x="125.9211"
           y="39.4716"
           style="font-style:normal;font-variant:normal;font-weight:bold;font-stretch:normal;font-size:9.13732px;font-family:sans-serif;-inkscape-font-specification:'sans-serif, Bold';font-variant-ligatures:normal;font-variant-caps:normal;font-variant-numeric:normal;font-variant-east-asian:normal;stroke-width:0.856624">Zugriff anvisierter Daten</tspan></text>
      <text
         xml:space="preserve"
         style="font-style:normal;font-variant:normal;font-weight:bold;font-stretch:normal;font-size:9.13732px;line-height:1.25;font-family:sans-serif;-inkscape-font-specification:'sans-serif, Bold';font-variant-ligatures:normal;font-variant-caps:normal;font-variant-numeric:normal;font-variant-east-asian:normal;stroke-width:0.856624"
         x="140.36"
         y="64.349762"
         id="text3952"><tspan
           sodipodi:role="line"
           id="tspan3950"
           x="140.36"
           y="64.349762"
           style="font-style:normal;font-variant:normal;font-weight:bold;font-stretch:normal;font-size:9.13732px;font-family:sans-serif;-inkscape-font-specification:'sans-serif, Bold';font-variant-ligatures:normal;font-variant-caps:normal;font-variant-numeric:normal;font-variant-east-asian:normal;stroke-width:0.856624">Übertragung</tspan></text>
      <text
         xml:space="preserve"
         style="font-style:normal;font-variant:normal;font-weight:bold;font-stretch:normal;font-size:9.13732px;line-height:1.25;font-family:sans-serif;-inkscape-font-specification:'sans-serif, Bold';font-variant-ligatures:normal;font-variant-caps:normal;font-variant-numeric:normal;font-variant-east-asian:normal;stroke-width:0.856624"
         x="313.62521"
         y="12.897101"
         id="text3956"><tspan
           sodipodi:role="line"
           id="tspan3954"
           x="313.62521"
           y="12.897101"
           style="font-style:normal;font-variant:normal;font-weight:bold;font-stretch:normal;font-size:9.13732px;font-family:sans-serif;-inkscape-font-specification:'sans-serif, Bold';font-variant-ligatures:normal;font-variant-caps:normal;font-variant-numeric:normal;font-variant-east-asian:normal;stroke-width:0.856624">Ergebnisse verwerfen</tspan></text>
      <text
         xml:space="preserve"
         style="font-style:normal;font-variant:normal;font-weight:bold;font-stretch:normal;font-size:9.13732px;line-height:1.25;font-family:sans-serif;-inkscape-font-specification:'sans-serif, Bold';font-variant-ligatures:normal;font-variant-caps:normal;font-variant-numeric:normal;font-variant-east-asian:normal;stroke-width:0.856624"
         x="332.69165"
         y="94.25592"
         id="text3960"><tspan
           sodipodi:role="line"
           id="tspan3958"
           x="332.69165"
           y="94.25592"
           style="font-style:normal;font-variant:normal;font-weight:bold;font-stretch:normal;font-size:9.13732px;font-family:sans-serif;-inkscape-font-specification:'sans-serif, Bold';font-variant-ligatures:normal;font-variant-caps:normal;font-variant-numeric:normal;font-variant-east-asian:normal;stroke-width:0.856624">Daten extrahieren</tspan></text>
      <text
         xml:space="preserve"
         style="font-style:italic;font-variant:normal;font-weight:normal;font-stretch:normal;font-size:6.85299px;line-height:1.25;font-family:sans-serif;-inkscape-font-specification:'sans-serif, Italic';font-variant-ligatures:normal;font-variant-caps:normal;font-variant-numeric:normal;font-variant-east-asian:normal;stroke-width:0.856624"
         x="29.951994"
         y="111.41331"
         id="text3976"><tspan
           sodipodi:role="line"
           id="tspan3974"
           x="29.951994"
           y="111.41331"
           style="font-style:italic;font-variant:normal;font-weight:normal;font-stretch:normal;font-size:6.85299px;font-family:sans-serif;-inkscape-font-specification:'sans-serif, Italic';font-variant-ligatures:normal;font-variant-caps:normal;font-variant-numeric:normal;font-variant-east-asian:normal;stroke-width:0.856624">architekturell</tspan></text>
      <text
         xml:space="preserve"
         style="font-style:italic;font-variant:normal;font-weight:normal;font-stretch:normal;font-size:6.85299px;line-height:1.25;font-family:sans-serif;-inkscape-font-specification:'sans-serif, Italic';font-variant-ligatures:normal;font-variant-caps:normal;font-variant-numeric:normal;font-variant-east-asian:normal;stroke-width:0.856624"
         x="317.20587"
         y="111.51456"
         id="text3976-8"><tspan
           sodipodi:role="line"
           id="tspan3974-8"
           x="317.20587"
           y="111.51456"
           style="font-style:italic;font-variant:normal;font-weight:normal;font-stretch:normal;font-size:6.85299px;font-family:sans-serif;-inkscape-font-specification:'sans-serif, Italic';font-variant-ligatures:normal;font-variant-caps:normal;font-variant-numeric:normal;font-variant-east-asian:normal;stroke-width:0.856624">architekturell</tspan></text>
      <text
         xml:space="preserve"
         style="font-style:italic;font-variant:normal;font-weight:normal;font-stretch:normal;font-size:6.853px;line-height:1.25;font-family:sans-serif;-inkscape-font-specification:'sans-serif, Italic';font-variant-ligatures:normal;font-variant-caps:normal;font-variant-numeric:normal;font-variant-east-asian:normal;stroke-width:0.856623"
         x="161.32858"
         y="111.31808"
         id="text4004"><tspan
           sodipodi:role="line"
           id="tspan4002"
           x="161.32858"
           y="111.31808"
           style="font-style:italic;font-variant:normal;font-weight:normal;font-stretch:normal;font-size:6.853px;font-family:sans-serif;-inkscape-font-specification:'sans-serif, Italic';font-variant-ligatures:normal;font-variant-caps:normal;font-variant-numeric:normal;font-variant-east-asian:normal;stroke-width:0.856623">Transient Execution</tspan></text>
      <text
         xml:space="preserve"
         style="font-style:normal;font-variant:normal;font-weight:bold;font-stretch:normal;font-size:6.85299px;line-height:1.25;font-family:sans-serif;-inkscape-font-specification:'sans-serif, Bold';font-variant-ligatures:normal;font-variant-caps:normal;font-variant-numeric:normal;font-variant-east-asian:normal;stroke-width:0.856624"
         x="398.06491"
         y="121.85123"
         id="text4034"><tspan
           sodipodi:role="line"
           id="tspan4032"
           x="398.06491"
           y="121.85123"
           style="font-style:normal;font-variant:normal;font-weight:bold;font-stretch:normal;font-size:6.85299px;font-family:sans-serif;-inkscape-font-specification:'sans-serif, Bold';font-variant-ligatures:normal;font-variant-caps:normal;font-variant-numeric:normal;font-variant-east-asian:normal;stroke-width:0.856624">Zeit</tspan></text>
    </g>
  </g>
</svg>
